<?xml version="1.0" encoding="UTF-8" standalone="no"?> <!-- Created with Vectornator for iOS (http://vectornator.io/) --><!DOCTYPE svg PUBLIC "-//W3C//DTD SVG 1.1//EN" "http://www.w3.org/Graphics/SVG/1.1/DTD/svg11.dtd">
<svg height="100%" style="fill-rule:evenodd;clip-rule:evenodd;stroke-linecap:round;stroke-linejoin:round;" xmlns:xlink="http://www.w3.org/1999/xlink" xmlns="http://www.w3.org/2000/svg" xml:space="preserve" width="100%" xmlns:vectornator="http://vectornator.io" version="1.1" viewBox="0 0 30 30">
<metadata>
<vectornator:setting key="SnapToPoints" value="0"/>
<vectornator:setting key="OutlineMode" value="0"/>
<vectornator:setting key="RulersVisible" value="1"/>
<vectornator:setting key="CMYKEnabledKey" value="0"/>
<vectornator:setting key="SnapToEdges" value="0"/>
<vectornator:setting key="DisplayWhiteBackground" value="1"/>
<vectornator:setting key="ShowGrid" value="1"/>
<vectornator:setting key="SnapToGuides" value="0"/>
<vectornator:setting key="Units" value="Pixels"/>
<vectornator:setting key="GridSpacing" value="36"/>
<vectornator:setting key="DynamicGuides" value="0"/>
<vectornator:setting key="SnapToGrid" value="0"/>
</metadata>
<defs>
<linearGradient y1="168.68" id="LinearGradient" x1="209.966" y2="168.68" x2="234.702" gradientUnits="userSpaceOnUse" gradientTransform="matrix(0.251957 0 0 0.235366 -34.8853 -29.5917)">
<stop stop-color="#bcf2ff" offset="0"/>
<stop stop-color="#437bb3" offset="0.991935"/>
<stop stop-color="#336ba9" offset="1"/>
<stop stop-opacity="0" stop-color="#792f72" offset="1"/>
</linearGradient>
<linearGradient y1="508.946" id="LinearGradient_2" x1="503.327" y2="508.946" x2="576.971" gradientUnits="userSpaceOnUse" gradientTransform="matrix(0.251957 0 0 0.235366 -120.588 -102.307)">
<stop stop-color="#bcf2ff" offset="0"/>
<stop stop-color="#437bb3" offset="0.991935"/>
<stop stop-color="#336ba9" offset="1"/>
<stop stop-opacity="0" stop-color="#792f72" offset="1"/>
</linearGradient>
</defs>
<g id="Calque 1" vectornator:layerName="Calque 1">
<path vectornator:shadowColor="#000000" vectornator:shadowOpacity="0.510212" vectornator:shadowRadius="4.91071" d="M21.6607+13.9532C21.6607+13.9532+27.2191+5.27927+22.0463+6.35976C16.8735+7.44025+18.1586+13.1429+18.1586+13.1429L21.6607+13.9532Z" vectornator:shadowOffset="3.57143" fill="url(#LinearGradient)" opacity="1" vectornator:shadowAngle="2.75778"/>
<path vectornator:shadowColor="#000000" vectornator:shadowOpacity="0.510212" vectornator:shadowRadius="4.91071" d="M8.86792+12.758C8.86792+12.758+3.88548+4.98279+8.52231+5.95133C13.1591+6.91987+12.0071+12.0316+12.0071+12.0316L8.86792+12.758Z" vectornator:shadowOffset="3.57143" fill="#bcf2ff" opacity="1" vectornator:shadowAngle="2.75778"/>
<path vectornator:shadowColor="#000000" vectornator:shadowOpacity="0.510212" vectornator:shadowRadius="4.91071" d="M9.08357+11.0399C9.08357+11.0399+6.37354+7.03235+8.89559+7.53156C11.4176+8.03078+10.791+10.6655+10.791+10.6655L9.08357+11.0399Z" vectornator:shadowOffset="3.57143" fill="#ffd0f4" opacity="1" vectornator:shadowAngle="2.75778"/>
<path vectornator:shadowColor="#000000" vectornator:shadowOpacity="0.510212" vectornator:shadowRadius="4.91071" d="M21.5126+11.0886C21.5126+11.0886+24.297+6.97117+21.7058+7.48407C19.1146+7.99697+19.7584+10.7039+19.7584+10.7039L21.5126+11.0886Z" vectornator:shadowOffset="3.57143" fill="#ffd0f4" opacity="1" vectornator:shadowAngle="2.75778"/>
<path vectornator:shadowColor="#000000" vectornator:shadowOpacity="0.510212" vectornator:shadowRadius="4.91071" d="M6.46218+16.3286C7.61124+20.5583+15.494+24.8532+15.494+24.8532C15.494+24.8532+23.4059+20.5217+24.5258+16.2919C25.6457+12.0622+22.8904+10.2474+20.6018+10.2584C18.3132+10.2695+15.488+13.3465+15.488+13.3465C15.488+13.3465+13.1155+10.1118+10.8882+10.1099C8.66089+10.108+5.31311+12.0988+6.46218+16.3286Z" vectornator:shadowOffset="3.57143" fill="url(#LinearGradient_2)" opacity="1" vectornator:shadowAngle="2.75778"/>
<path vectornator:shadowColor="#000000" vectornator:shadowOpacity="0.510212" vectornator:shadowRadius="4.91071" d="M17.7201+16.1116L19.6874+16.0952" vectornator:shadowOffset="3.57143" fill="none" opacity="1" vectornator:shadowAngle="2.75778"/>
<path vectornator:shadowColor="#000000" vectornator:shadowOpacity="0.510212" vectornator:shadowRadius="4.91071" d="M17.717+16.1379L19.0009+16.1009" vectornator:shadowOffset="3.57143" fill="none" opacity="1" vectornator:shadowAngle="2.75778"/>
<path vectornator:shadowColor="#000000" vectornator:shadowOpacity="0.510212" vectornator:shadowRadius="4.91071" d="M17.2255+16.0952L21.1332+16.1034" vectornator:shadowOffset="3.57143" fill="none" opacity="1" vectornator:shadowAngle="2.75778"/>
<path d="M11.3572+15.5694C11.3572+15.1463+11.705+14.8033+12.1341+14.8033C12.5631+14.8033+12.911+15.1463+12.911+15.5694C12.911+15.9926+12.5631+16.3356+12.1341+16.3356C11.705+16.3356+11.3572+15.9926+11.3572+15.5694Z" opacity="1" fill="#000000"/>
<path vectornator:shadowColor="#000000" vectornator:shadowOpacity="0.510212" vectornator:shadowRadius="4.91071" d="M17.4471+15.6349C17.4471+15.2479+17.7949+14.9341+18.224+14.9341C18.6531+14.9341+19.0009+15.2479+19.0009+15.6349C19.0009+16.0219+18.6531+16.3356+18.224+16.3356C17.7949+16.3356+17.4471+16.0219+17.4471+15.6349Z" vectornator:shadowOffset="3.57143" fill="#000000" opacity="1" vectornator:shadowAngle="2.75778"/>
<path d="M17.5872+15.2852C17.5872+15.0921+17.76+14.9356+17.9731+14.9356C18.1862+14.9356+18.359+15.0921+18.359+15.2852C18.359+15.4783+18.1862+15.6349+17.9731+15.6349C17.76+15.6349+17.5872+15.4783+17.5872+15.2852Z" opacity="1" fill="#ffffff"/>
<path d="M11.3193+15.2198C11.3193+15.0267+11.5017+14.8702+11.7267+14.8702C11.9517+14.8702+12.1341+15.0267+12.1341+15.2198C12.1341+15.4129+11.9517+15.5694+11.7267+15.5694C11.5017+15.5694+11.3193+15.4129+11.3193+15.2198Z" opacity="1" fill="#ffffff"/>
<g opacity="1">
<path d="M15.4864+19.582L15.4879+19.7213C15.4887+19.7991+15.4989+19.8737+15.5185+19.9451C15.5381+20.0165+15.569+20.0783+15.6112+20.1306C15.6534+20.183+15.7083+20.2245+15.7758+20.2553C15.8433+20.286+15.9241+20.301+16.0181+20.3001C16.1713+20.2987+16.2898+20.2543+16.3735+20.1669C16.4573+20.0795+16.4983+19.958+16.4966+19.8023C16.4954+19.6893+16.4675+19.5904+16.4129+19.5056C16.3582+19.4207+16.2795+19.3511+16.1768+19.2969L16.3033+19.0584C16.4573+19.1373+16.572+19.2386+16.6472+19.3622C16.7224+19.4858+16.7609+19.6291+16.7626+19.7923C16.7637+19.8978+16.7487+19.9971+16.7174+20.0903C16.6861+20.1834+16.6393+20.2655+16.5769+20.3364C16.5145+20.4072+16.4371+20.4638+16.3449+20.5061C16.2526+20.5484+16.1473+20.5701+16.0291+20.5712C15.9512+20.5719+15.8771+20.5606+15.807+20.5374C15.7369+20.5142+15.6734+20.4822+15.6165+20.4413C15.5596+20.4004+15.5101+20.3525+15.4678+20.2977C15.4256+20.2428+15.3934+20.1854+15.3712+20.1253L15.3633+20.1367C15.348+20.2122+15.3185+20.2815+15.2748+20.3447C15.2311+20.4078+15.1773+20.4623+15.1133+20.5081C15.0493+20.5539+14.9771+20.5897+14.8967+20.6156C14.8164+20.6414+14.7318+20.6547+14.6431+20.6556C14.5115+20.6568+14.3943+20.6353+14.2917+20.591C14.1891+20.5468+14.1025+20.4861+14.0318+20.4089C13.9611+20.3317+13.907+20.2418+13.8697+20.1393C13.8323+20.0367+13.813+19.9276+13.8118+19.8121C13.8097+19.6163+13.8536+19.4452+13.9434+19.2987C14.0332+19.1523+14.1785+19.0417+14.3793+18.9671L14.475+19.2524C14.3385+19.2988+14.2377+19.3669+14.1728+19.4567C14.1079+19.5464+14.0763+19.6716+14.0781+19.8323C14.0789+19.9076+14.0931+19.979+14.1206+20.0465C14.1482+20.1141+14.1872+20.1733+14.2374+20.2243C14.2877+20.2754+14.3479+20.315+14.4181+20.3432C14.4883+20.3714+14.565+20.3851+14.6483+20.3844C14.7558+20.3834+14.8463+20.3637+14.9198+20.3254C14.9933+20.287+15.0526+20.2362+15.0976+20.1731C15.1426+20.1099+15.1748+20.0374+15.1941+19.9556C15.2134+19.8738+15.2225+19.789+15.2216+19.7012L15.2204+19.5844L15.4864+19.582Z" opacity="1" fill="#000000"/>
</g>
</g>
</svg>
