<?xml version="1.0" encoding="UTF-8" standalone="no"?> <!-- Created with Vectornator for iOS (http://vectornator.io/) --><!DOCTYPE svg PUBLIC "-//W3C//DTD SVG 1.1//EN" "http://www.w3.org/Graphics/SVG/1.1/DTD/svg11.dtd">
<svg height="100%" style="fill-rule:evenodd;clip-rule:evenodd;stroke-linecap:round;stroke-linejoin:round;" xmlns:xlink="http://www.w3.org/1999/xlink" xmlns="http://www.w3.org/2000/svg" xml:space="preserve" width="100%" xmlns:vectornator="http://vectornator.io" version="1.1" viewBox="0 0 1024 1024">
<metadata>
<vectornator:setting key="DisplayWhiteBackground" value="1"/>
<vectornator:setting key="RulersVisible" value="1"/>
<vectornator:setting key="SnapToEdges" value="1"/>
<vectornator:setting key="Units" value="Pixels"/>
<vectornator:setting key="DynamicGuides" value="1"/>
<vectornator:setting key="SnapToPoints" value="0"/>
<vectornator:setting key="CMYKEnabledKey" value="0"/>
<vectornator:setting key="SnapToGrid" value="0"/>
<vectornator:setting key="SnapToGuides" value="0"/>
<vectornator:setting key="ShowGrid" value="1"/>
<vectornator:setting key="GridSpacing" value="36"/>
</metadata>
<defs/>
<g id="Calque 7" vectornator:layerName="Calque 7">
<path stroke="#000000" vectornator:shadowColor="#3c4f92" vectornator:shadowOffset="3.57143" stroke-width="2" fill="#bcf2ff" stroke-linecap="round" vectornator:shadowAngle="2.75778" stroke-linejoin="round" opacity="1" vectornator:shadowRadius="4.91071" d="M629.112+502.741C629.112+483.203+645.296+467.364+665.261+467.364C685.226+467.364+701.411+483.203+701.411+502.741C701.411+522.278+685.226+538.117+665.261+538.117C645.296+538.117+629.112+522.278+629.112+502.741Z" vectornator:shadowOpacity="0.766909"/>
<path d="M647.863+498.392C647.863+507.392+635.508+529.224+647.863+534.392C673.502+545.115+699.082+528.974+701.271+502.573C686.657+513.193+667.21+517.347+647.863+498.392Z" fill-opacity="0.294643" fill="#5c4798" opacity="1"/>
</g>
<g id="Calque 4" vectornator:layerName="Calque 4">
<path stroke="#000000" vectornator:shadowColor="#000000" vectornator:shadowOffset="3.57143" stroke-width="3" fill="#bcf2ff" stroke-linecap="round" vectornator:shadowAngle="2.75778" stroke-linejoin="round" opacity="1" vectornator:shadowRadius="4.91071" d="M338.467+314.597C338.467+314.597+322.488+205.177+343.364+197.122C364.239+189.066+423.693+291.447+423.693+291.447" vectornator:shadowOpacity="0.510212"/>
<path stroke="#630058" vectornator:shadowColor="#000000" vectornator:shadowOffset="3.57143" stroke-width="1" fill="#ffcaed" stroke-linecap="round" vectornator:shadowAngle="2.75778" stroke-linejoin="round" opacity="1" vectornator:shadowRadius="4.91071" d="M361.237+293.607C361.237+293.607+345.694+239.195+356.297+235.104C366.9+231.012+395.698+289.33+395.698+289.33" vectornator:shadowOpacity="0.510212"/>
<path stroke="#000000" vectornator:shadowColor="#000000" vectornator:shadowOffset="3.57143" stroke-width="3" fill="#bcf2ff" stroke-linecap="round" vectornator:shadowAngle="2.75778" stroke-linejoin="round" opacity="1" vectornator:shadowRadius="4.91071" d="M587.736+331.011C587.736+331.011+607.086+198.511+581.807+188.757C556.529+179.002+486.442+295.632+486.442+295.632" vectornator:shadowOpacity="0.510212"/>
<path stroke="#630058" vectornator:shadowColor="#000000" vectornator:shadowOffset="3.57143" stroke-width="1" fill="#ffcaed" stroke-linecap="round" vectornator:shadowAngle="2.75778" stroke-linejoin="round" opacity="1" vectornator:shadowRadius="4.91071" d="M560.164+305.594C560.164+305.594+578.985+239.704+566.146+234.75C553.306+229.795+522.307+292.045+522.307+292.045" vectornator:shadowOpacity="0.510212"/>
</g>
<g id="Calque 3" vectornator:layerName="Calque 3">
<path stroke="#000000" vectornator:shadowColor="#000000" vectornator:shadowOffset="3.57143" stroke-width="3" fill="#bcf2ff" stroke-linecap="round" vectornator:shadowAngle="2.75778" stroke-linejoin="round" opacity="1" vectornator:shadowRadius="4.91071" d="M288+360C288+360+288+288+360+288C396+288+576+288+576+288C576+288+650.319+288.236+648+360C645.681+431.764+647.92+576+647.92+576L288+576L288+360Z" vectornator:shadowOpacity="0.510212"/>
</g>
<g id="Calque 7_2" vectornator:layerName="Calque 7">
<path d="M468.925+287.608C468.925+287.608+550.048+290.62+576.817+362.64C603.585+434.659+576+575.684+576+575.684L647.357+576C647.357+576+648+434.177+648+360C648+360+648+288+576+288C527.712+288+468.925+287.608+468.925+287.608Z" fill-opacity="0.294643" fill="#5c4798" opacity="1"/>
<path d="M396+288C396+288+344.742+292.495+319.898+357.622C303.714+400.049+320.264+453.091+320.264+453.091L288.288+453.232C288.288+453.232+288+389.679+288+356.44C288+356.44+288.731+319.928+317.919+298.334C337.501+283.846+396+288+396+288Z" fill-opacity="0.294643" fill="#5c4798" opacity="1"/>
</g>
<g id="Calque 5" vectornator:layerName="Calque 5">
<path stroke="#630058" vectornator:shadowColor="#000000" vectornator:shadowOffset="3.57143" stroke-width="1" fill="#000000" stroke-linecap="round" vectornator:shadowAngle="2.75778" stroke-linejoin="round" opacity="1" vectornator:shadowRadius="4.91071" d="M468+342C468+332.059+476.059+324+486+324C495.941+324+504+332.059+504+342C504+351.941+495.941+360+486+360C476.059+360+468+351.941+468+342Z" vectornator:shadowOpacity="0.510212"/>
<path stroke="#630058" vectornator:shadowColor="#000000" vectornator:shadowOffset="3.57143" stroke-width="1" fill="#000000" stroke-linecap="round" vectornator:shadowAngle="2.75778" stroke-linejoin="round" opacity="1" vectornator:shadowRadius="4.91071" d="M360+342C360+332.059+368.059+324+378+324C387.941+324+396+332.059+396+342C396+351.941+387.941+360+378+360C368.059+360+360+351.941+360+342Z" vectornator:shadowOpacity="0.510212"/>
<path vectornator:shadowColor="#000000" vectornator:shadowOpacity="0.510212" vectornator:shadowRadius="4.91071" d="M484.378+338.671C484.378+334.153+488.184+330.49+492.879+330.49C497.574+330.49+501.381+334.153+501.381+338.671C501.381+343.19+497.574+346.852+492.879+346.852C488.184+346.852+484.378+343.19+484.378+338.671Z" vectornator:shadowOffset="3.57143" fill="#ffffff" opacity="1" vectornator:shadowAngle="2.75778"/>
<path vectornator:shadowColor="#000000" vectornator:shadowOpacity="0.510212" vectornator:shadowRadius="4.91071" d="M374.613+338.07C374.613+333.551+378.419+329.888+383.115+329.888C387.81+329.888+391.616+333.551+391.616+338.07C391.616+342.588+387.81+346.251+383.115+346.251C378.419+346.251+374.613+342.588+374.613+338.07Z" vectornator:shadowOffset="3.57143" fill="#ffffff" opacity="1" vectornator:shadowAngle="2.75778"/>
</g>
<g id="Calque 6" vectornator:layerName="Calque 6">
<g opacity="1">
<path d="M436.345+376.512L436.357+377.876C436.364+378.756+436.452+379.613+436.62+380.448C436.789+381.282+437.074+382.021+437.475+382.663C437.877+383.305+438.416+383.821+439.094+384.211C439.772+384.601+440.61+384.792+441.607+384.784C442.399+384.777+443.109+384.624+443.737+384.326C444.366+384.027+444.898+383.619+445.333+383.102C445.769+382.585+446.108+381.995+446.352+381.333C446.596+380.671+446.715+379.974+446.709+379.24C446.697+377.92+446.351+376.801+445.668+375.883C444.986+374.965+444.041+374.276+442.834+373.817L444.166+369.933C446.049+370.68+447.534+371.892+448.619+373.57C449.703+375.247+450.255+377.186+450.274+379.386C450.285+380.677+450.112+381.903+449.755+383.065C449.398+384.226+448.872+385.25+448.175+386.136C447.478+387.022+446.604+387.726+445.553+388.248C444.501+388.771+443.286+389.038+441.907+389.049C441.027+389.057+440.205+388.924+439.44+388.652C438.675+388.38+437.982+388.004+437.362+387.526C436.742+387.047+436.209+386.472+435.764+385.801C435.318+385.13+434.989+384.4+434.777+383.609L434.689+383.61C434.521+384.521+434.22+385.367+433.787+386.148C433.353+386.929+432.809+387.601+432.154+388.164C431.498+388.727+430.747+389.173+429.899+389.503C429.051+389.833+428.128+390.002+427.131+390.01C425.576+390.024+424.203+389.742+423.01+389.165C421.817+388.589+420.82+387.82+420.02+386.859C419.22+385.897+418.609+384.788+418.188+383.53C417.766+382.272+417.55+380.983+417.539+379.663C417.518+377.199+418.057+375.024+419.156+373.137C420.255+371.251+421.974+369.872+424.313+369.002L425.666+372.95C424.321+373.431+423.228+374.24+422.387+375.376C421.546+376.513+421.132+377.902+421.146+379.545C421.153+380.337+421.284+381.106+421.54+381.852C421.795+382.597+422.175+383.262+422.679+383.844C423.182+384.426+423.802+384.891+424.539+385.236C425.275+385.582+426.142+385.751+427.139+385.742C428.224+385.733+429.131+385.491+429.861+385.015C430.59+384.54+431.179+383.926+431.627+383.174C432.076+382.422+432.391+381.576+432.574+380.636C432.757+379.696+432.844+378.771+432.836+377.862L432.825+376.542L436.345+376.512Z" opacity="1" fill="#000000"/>
</g>
</g>
<g id="Calque 2" vectornator:layerName="Calque 2">
<path stroke="#000000" vectornator:shadowColor="#000000" vectornator:shadowOffset="3.57143" stroke-width="3" fill="#909090" stroke-linecap="round" vectornator:shadowAngle="2.75778" stroke-linejoin="round" opacity="1" vectornator:shadowRadius="4.91071" d="M576+720C576+720+605.431+689.588+643.406+638.443C643.406+638.443+671.706+603.139+671.928+587.529C672.151+571.918+576+576+576+576" vectornator:shadowOpacity="0.510212"/>
<path stroke="#000000" vectornator:shadowColor="#000000" vectornator:shadowOffset="3.57143" stroke-width="2" fill="#bababa" stroke-linecap="round" vectornator:shadowAngle="2.75778" stroke-linejoin="round" opacity="1" vectornator:shadowRadius="4.91071" d="M576.225+684L648.053+594.977L576+596.343" vectornator:shadowOpacity="0.510212"/>
</g>
<g id="Calque 1" vectornator:layerName="Calque 1">
<path stroke="#000000" vectornator:shadowColor="#000000" vectornator:shadowOffset="3.57143" stroke-width="3" fill="#757575" stroke-linecap="round" vectornator:shadowAngle="2.75778" stroke-linejoin="round" opacity="1" vectornator:shadowRadius="4.91071" d="M216+397.219C216+397.219+216+603.305+216+684C180+684+180+720+216+720C306.449+720+504+720+576+720C612+720+612+684+576+684C485.175+684+216+684+216+684L576+684L576+396L216+397.219" vectornator:shadowOpacity="0.510212"/>
</g>
<g id="Calque 3_2" vectornator:layerName="Calque 3">
<g opacity="1">
<path vectornator:shadowColor="#202020" vectornator:shadowOpacity="1" vectornator:shadowRadius="4.91071" d="M314.066+425.611L309.116+453.826L296.356+453.826L301.306+425.611L291.461+425.611L293.386+414.886L325.506+414.886L323.581+425.611L314.066+425.611Z" vectornator:shadowOffset="3.57143" fill="#b1b1b1" opacity="1" vectornator:shadowAngle="2.75778"/>
<path vectornator:shadowColor="#202020" vectornator:shadowOpacity="1" vectornator:shadowRadius="4.91071" d="M357.805+453.826L345.54+453.826L344.055+438.756L343.945+438.756L336.41+453.826L324.2+453.826L320.24+424.896L333.11+424.896L333.715+440.241L333.935+440.241L340.92+424.896L352.855+424.896L353.845+440.241L354.01+440.241L360.775+424.896L373.7+424.896L357.805+453.826Z" vectornator:shadowOffset="3.57143" fill="#b1b1b1" opacity="1" vectornator:shadowAngle="2.75778"/>
<path vectornator:shadowColor="#202020" vectornator:shadowOpacity="1" vectornator:shadowRadius="4.91071" d="M372.118+453.826L377.233+424.896L389.553+424.896L384.438+453.826L372.118+453.826ZM384.108+422.751C383.155+422.751+382.303+422.604+381.551+422.311C380.799+422.017+380.167+421.623+379.653+421.128C379.14+420.633+378.737+420.065+378.443+419.423C378.15+418.781+378.003+418.112+378.003+417.416C378.003+416.426+378.168+415.5+378.498+414.638C378.828+413.776+379.305+413.025+379.928+412.383C380.552+411.741+381.285+411.237+382.128+410.871C382.972+410.504+383.925+410.321+384.988+410.321C385.868+410.321+386.684+410.467+387.436+410.761C388.188+411.054+388.829+411.448+389.361+411.943C389.893+412.438+390.305+413.006+390.598+413.648C390.892+414.29+391.038+414.959+391.038+415.656C391.038+416.646+390.873+417.571+390.543+418.433C390.213+419.295+389.746+420.046+389.141+420.688C388.536+421.33+387.803+421.834+386.941+422.201C386.079+422.567+385.135+422.751+384.108+422.751Z" vectornator:shadowOffset="3.57143" fill="#b1b1b1" opacity="1" vectornator:shadowAngle="2.75778"/>
<path vectornator:shadowColor="#202020" vectornator:shadowOpacity="1" vectornator:shadowRadius="4.91071" d="M407.552+433.751L406.067+441.891C406.031+442.111+406.003+442.367+405.985+442.661C405.966+442.954+405.957+443.192+405.957+443.376C405.957+444.219+406.168+444.778+406.59+445.053C407.011+445.328+407.607+445.466+408.377+445.466C408.817+445.466+409.257+445.429+409.697+445.356C410.137+445.282+410.504+445.209+410.797+445.136L409.312+453.606C408.836+453.899+407.992+454.137+406.782+454.321C405.572+454.504+404.399+454.596+403.262+454.596C402.052+454.596+400.861+454.486+399.687+454.266C398.514+454.046+397.469+453.661+396.552+453.111C395.636+452.561+394.893+451.809+394.325+450.856C393.756+449.902+393.472+448.674+393.472+447.171C393.472+446.767+393.5+446.309+393.555+445.796C393.61+445.282+393.674+444.806+393.747+444.366L395.672+433.751L391.382+433.751L392.922+424.896L396.992+424.896L398.147+418.351L410.082+418.351L408.927+424.896L414.482+424.896L412.942+433.751L407.552+433.751Z" vectornator:shadowOffset="3.57143" fill="#b1b1b1" opacity="1" vectornator:shadowAngle="2.75778"/>
<path vectornator:shadowColor="#202020" vectornator:shadowOpacity="1" vectornator:shadowRadius="4.91071" d="M429.346+433.751L427.861+441.891C427.824+442.111+427.797+442.367+427.778+442.661C427.76+442.954+427.751+443.192+427.751+443.376C427.751+444.219+427.962+444.778+428.383+445.053C428.805+445.328+429.401+445.466+430.171+445.466C430.611+445.466+431.051+445.429+431.491+445.356C431.931+445.282+432.298+445.209+432.591+445.136L431.106+453.606C430.629+453.899+429.786+454.137+428.576+454.321C427.366+454.504+426.193+454.596+425.056+454.596C423.846+454.596+422.654+454.486+421.481+454.266C420.308+454.046+419.263+453.661+418.346+453.111C417.429+452.561+416.687+451.809+416.118+450.856C415.55+449.902+415.266+448.674+415.266+447.171C415.266+446.767+415.293+446.309+415.348+445.796C415.403+445.282+415.468+444.806+415.541+444.366L417.466+433.751L413.176+433.751L414.716+424.896L418.786+424.896L419.941+418.351L431.876+418.351L430.721+424.896L436.276+424.896L434.736+433.751L429.346+433.751Z" vectornator:shadowOffset="3.57143" fill="#b1b1b1" opacity="1" vectornator:shadowAngle="2.75778"/>
<path vectornator:shadowColor="#202020" vectornator:shadowOpacity="1" vectornator:shadowRadius="4.91071" d="M447.95+442.221C447.913+442.331+447.895+442.459+447.895+442.606C447.895+443.229+448.06+443.733+448.39+444.118C448.72+444.503+449.123+444.815+449.6+445.053C450.076+445.291+450.59+445.456+451.14+445.548C451.69+445.64+452.185+445.686+452.625+445.686C453.541+445.686+454.44+445.53+455.32+445.218C456.2+444.906+456.988+444.421+457.685+443.761L465.99+449.481C464.083+451.424+461.901+452.781+459.445+453.551C456.988+454.321+454.44+454.706+451.8+454.706C449.746+454.706+447.794+454.431+445.942+453.881C444.09+453.331+442.477+452.506+441.102+451.406C439.727+450.306+438.636+448.94+437.83+447.308C437.023+445.676+436.62+443.761+436.62+441.561C436.62+439.104+437.06+436.803+437.94+434.658C438.82+432.513+440.057+430.652+441.652+429.076C443.247+427.499+445.154+426.261+447.372+425.363C449.59+424.465+452.038+424.016+454.715+424.016C456.841+424.016+458.748+424.318+460.435+424.923C462.121+425.528+463.551+426.39+464.725+427.508C465.898+428.626+466.805+429.983+467.447+431.578C468.089+433.173+468.41+434.961+468.41+436.941C468.41+437.747+468.345+438.627+468.217+439.581C468.089+440.534+467.896+441.414+467.64+442.221L447.95+442.221ZM457.685+435.676C457.721+435.566+457.74+435.446+457.74+435.318C457.74+435.19+457.74+435.089+457.74+435.016C457.74+434.099+457.4+433.366+456.722+432.816C456.044+432.266+455.1+431.991+453.89+431.991C453.12+431.991+452.432+432.119+451.827+432.376C451.222+432.632+450.7+432.944+450.26+433.311C449.82+433.677+449.462+434.071+449.187+434.493C448.912+434.915+448.72+435.309+448.61+435.676L457.685+435.676Z" vectornator:shadowOffset="3.57143" fill="#b1b1b1" opacity="1" vectornator:shadowAngle="2.75778"/>
<path vectornator:shadowColor="#202020" vectornator:shadowOpacity="1" vectornator:shadowRadius="4.91071" d="M474.858+430.561C475.005+429.864+475.161+428.966+475.326+427.866C475.491+426.766+475.61+425.776+475.683+424.896L487.508+424.896C487.508+425.079+487.49+425.317+487.453+425.611C487.417+425.904+487.371+426.225+487.316+426.573C487.261+426.921+487.206+427.261+487.151+427.591C487.096+427.921+487.05+428.196+487.013+428.416L487.178+428.416C488.022+427.242+489.048+426.261+490.258+425.473C491.468+424.685+492.898+424.291+494.548+424.291C495.538+424.291+496.308+424.382+496.858+424.566L494.548+435.016C494.182+434.906+493.76+434.832+493.283+434.796C492.807+434.759+492.367+434.741+491.963+434.741C490.057+434.741+488.572+435.245+487.508+436.253C486.445+437.261+485.785+438.444+485.528+439.801L483.053+453.826L470.733+453.826L474.858+430.561Z" vectornator:shadowOffset="3.57143" fill="#b1b1b1" opacity="1" vectornator:shadowAngle="2.75778"/>
<path vectornator:shadowColor="#202020" vectornator:shadowOpacity="1" vectornator:shadowRadius="4.91071" d="M406.143+552.134C403.663+552.134+401.493+551.654+399.633+550.693C397.773+549.732+396.688+548.352+396.378+546.554L396.192+546.554C395.324+547.918+393.913+549.189+391.96+550.367C390.007+551.545+387.915+552.134+385.683+552.134C381.529+552.134+378.444+550.91+376.429+548.461C374.414+546.012+373.407+542.927+373.407+539.207C373.407+536.417+373.872+533.565+374.802+530.651C375.732+527.737+377.111+525.118+378.94+522.793C380.769+520.468+383.001+518.561+385.636+517.073C388.271+515.585+391.263+514.841+394.611+514.841C397.215+514.841+399.121+515.368+400.33+516.422C401.539+517.476+402.237+518.561+402.423+519.677L402.609+519.677L403.446+517.352L415.815+517.352L412.095+527.861C411.227+530.279+410.436+532.589+409.723+534.79C409.01+536.991+408.654+538.556+408.654+539.486C408.654+540.478+409.336+540.974+410.7+540.974C412.994+540.974+414.9+539.765+416.419+537.347C417.938+534.929+418.698+531.581+418.698+527.303C418.698+524.017+418.186+521.227+417.163+518.933C416.14+516.639+414.714+514.764+412.885+513.307C411.056+511.85+408.871+510.796+406.329+510.145C403.787+509.494+400.997+509.168+397.959+509.168C394.053+509.168+390.364+509.804+386.892+511.075C383.42+512.346+380.382+514.19+377.778+516.608C375.174+519.026+373.097+521.971+371.547+525.443C369.997+528.915+369.222+532.821+369.222+537.161C369.222+540.633+369.795+543.718+370.942+546.415C372.089+549.112+373.717+551.359+375.825+553.157C377.933+554.955+380.49+556.319+383.497+557.249C386.504+558.179+389.837+558.644+393.495+558.644C396.843+558.644+400.129+558.086+403.353+556.97C406.577+555.854+409.615+554.242+412.467+552.134L418.047+559.853C414.947+562.395+411.211+564.503+406.84+566.177C402.469+567.851+397.68+568.688+392.472+568.688C387.388+568.688+382.691+568.022+378.382+566.689C374.073+565.356+370.369+563.403+367.269+560.83C364.169+558.257+361.735+555.079+359.968+551.297C358.201+547.515+357.318+543.175+357.318+538.277C357.318+532.263+358.449+526.854+360.712+522.049C362.975+517.244+365.998+513.167+369.78+509.819C373.562+506.471+377.933+503.914+382.893+502.147C387.853+500.38+393.03+499.496+398.424+499.496C402.454+499.496+406.329+500.07+410.049+501.217C413.769+502.364+417.07+504.038+419.953+506.239C422.836+508.44+425.146+511.168+426.882+514.423C428.618+517.678+429.486+521.413+429.486+525.629C429.486+528.729+429.052+531.86+428.184+535.022C427.316+538.184+425.936+541.036+424.045+543.578C422.154+546.12+419.736+548.182+416.791+549.763C413.846+551.344+410.297+552.134+406.143+552.134ZM397.866+529.256C397.866+528.202+397.54+527.334+396.889+526.652C396.238+525.97+395.355+525.629+394.239+525.629C393.309+525.629+392.425+526.017+391.588+526.792C390.751+527.567+389.992+528.528+389.31+529.675C388.628+530.822+388.085+532.062+387.682+533.395C387.279+534.728+387.078+535.952+387.078+537.068C387.078+539.61+388.256+540.881+390.612+540.881C391.604+540.881+392.549+540.494+393.448+539.719C394.347+538.944+395.122+537.983+395.773+536.836C396.424+535.689+396.936+534.433+397.308+533.069C397.68+531.705+397.866+530.434+397.866+529.256Z" vectornator:shadowOffset="3.57143" fill="#b1b1b1" opacity="1" vectornator:shadowAngle="2.75778"/>
<path vectornator:shadowColor="#202020" vectornator:shadowOpacity="1" vectornator:shadowRadius="4.91071" d="M275.972+656.111L275.092+650.171L262.442+650.171L259.197+656.111L245.007+656.111L268.932+617.171L282.352+617.171L289.172+656.111L275.972+656.111ZM272.892+630.426L267.337+640.436L274.047+640.436L272.892+630.426Z" vectornator:shadowOffset="3.57143" fill="#b1b1b1" opacity="1" vectornator:shadowAngle="2.75778"/>
<path vectornator:shadowColor="#202020" vectornator:shadowOpacity="1" vectornator:shadowRadius="4.91071" d="M315.035+637.796C314.779+637.429+314.33+637.081+313.688+636.751C313.046+636.421+312.267+636.256+311.35+636.256C309.48+636.256+307.995+636.861+306.895+638.071C305.795+639.281+305.245+640.729+305.245+642.416C305.245+643.516+305.621+644.497+306.373+645.358C307.125+646.22+308.307+646.651+309.92+646.651C310.837+646.651+311.671+646.477+312.423+646.128C313.175+645.78+313.752+645.404+314.155+645.001L319.05+653.306C317.584+654.479+315.925+655.387+314.073+656.028C312.221+656.67+310.085+656.991+307.665+656.991C305.539+656.991+303.595+656.688+301.835+656.083C300.075+655.478+298.572+654.608+297.325+653.471C296.079+652.334+295.116+650.978+294.438+649.401C293.76+647.824+293.42+646.046+293.42+644.066C293.42+641.683+293.851+639.418+294.713+637.273C295.575+635.128+296.794+633.24+298.37+631.608C299.947+629.977+301.835+628.684+304.035+627.731C306.235+626.778+308.655+626.301+311.295+626.301C313.495+626.301+315.567+626.622+317.51+627.263C319.454+627.905+320.957+628.868+322.02+630.151L315.035+637.796Z" vectornator:shadowOffset="3.57143" fill="#b1b1b1" opacity="1" vectornator:shadowAngle="2.75778"/>
<path vectornator:shadowColor="#202020" vectornator:shadowOpacity="1" vectornator:shadowRadius="4.91071" d="M339.579+644.231L338.864+644.231C337.947+644.231+337.086+644.286+336.279+644.396C335.472+644.506+334.767+644.68+334.162+644.918C333.557+645.157+333.071+645.468+332.704+645.853C332.337+646.238+332.154+646.724+332.154+647.311C332.154+648.154+332.42+648.695+332.952+648.933C333.483+649.172+334.061+649.291+334.684+649.291C335.894+649.291+336.93+648.906+337.792+648.136C338.653+647.366+339.194+646.376+339.414+645.166L339.579+644.231ZM349.094+651.656C348.947+652.463+348.847+653.288+348.792+654.131C348.737+654.974+348.709+655.634+348.709+656.111L338.149+656.111C338.149+655.854+338.158+655.442+338.177+654.873C338.195+654.305+338.222+653.838+338.259+653.471L338.149+653.471C337.086+654.681+335.876+655.552+334.519+656.083C333.162+656.615+331.659+656.881+330.009+656.881C328.982+656.881+327.956+656.734+326.929+656.441C325.902+656.148+324.977+655.698+324.152+655.093C323.327+654.488+322.657+653.7+322.144+652.728C321.631+651.757+321.374+650.593+321.374+649.236C321.374+646.999+321.878+645.157+322.887+643.708C323.895+642.26+325.252+641.114+326.957+640.271C328.662+639.428+330.632+638.832+332.869+638.483C335.106+638.135+337.452+637.961+339.909+637.961C339.946+637.814+339.964+637.695+339.964+637.603C339.964+637.512+339.964+637.429+339.964+637.356C339.964+636.623+339.643+636.063+339.002+635.678C338.36+635.293+337.526+635.101+336.499+635.101C335.326+635.101+334.189+635.33+333.089+635.788C331.989+636.247+330.981+636.861+330.064+637.631L324.674+631.471C325.554+630.628+326.553+629.885+327.672+629.243C328.79+628.602+329.936+628.061+331.109+627.621C332.282+627.181+333.474+626.851+334.684+626.631C335.894+626.411+337.049+626.301+338.149+626.301C342.549+626.301+345.858+627.19+348.077+628.968C350.295+630.747+351.404+633.249+351.404+636.476C351.404+637.833+351.257+639.354+350.964+641.041L349.094+651.656Z" vectornator:shadowOffset="3.57143" fill="#b1b1b1" opacity="1" vectornator:shadowAngle="2.75778"/>
<path vectornator:shadowColor="#202020" vectornator:shadowOpacity="1" vectornator:shadowRadius="4.91071" d="M366.598+656.826C364.691+656.826+363.014+656.505+361.565+655.863C360.117+655.222+358.898+654.342+357.908+653.223C356.918+652.105+356.175+650.794+355.68+649.291C355.185+647.788+354.938+646.174+354.938+644.451C354.938+641.994+355.341+639.675+356.148+637.493C356.954+635.312+358.073+633.414+359.503+631.801C360.933+630.188+362.638+628.904+364.618+627.951C366.598+626.998+368.743+626.521+371.053+626.521C371.749+626.521+372.464+626.594+373.198+626.741C373.931+626.888+374.628+627.098+375.288+627.373C375.948+627.648+376.553+627.988+377.103+628.391C377.653+628.794+378.093+629.234+378.423+629.711L378.533+629.711L381.173+614.531L393.438+614.531L386.123+656.111L375.068+656.111L375.618+653.031L375.508+653.031C374.664+654.131+373.482+655.038+371.96+655.753C370.439+656.468+368.651+656.826+366.598+656.826ZM366.928+642.691C366.928+643.864+367.304+644.854+368.055+645.661C368.807+646.468+369.898+646.871+371.328+646.871C372.171+646.871+372.932+646.706+373.61+646.376C374.289+646.046+374.875+645.588+375.37+645.001C375.865+644.414+376.25+643.736+376.525+642.966C376.8+642.196+376.938+641.389+376.938+640.546C376.938+639.336+376.562+638.337+375.81+637.548C375.059+636.76+373.986+636.366+372.593+636.366C371.713+636.366+370.924+636.531+370.228+636.861C369.531+637.191+368.935+637.649+368.44+638.236C367.945+638.823+367.569+639.492+367.313+640.243C367.056+640.995+366.928+641.811+366.928+642.691Z" vectornator:shadowOffset="3.57143" fill="#b1b1b1" opacity="1" vectornator:shadowAngle="2.75778"/>
<path vectornator:shadowColor="#202020" vectornator:shadowOpacity="1" vectornator:shadowRadius="4.91071" d="M404.947+644.506C404.91+644.616+404.892+644.744+404.892+644.891C404.892+645.514+405.057+646.018+405.387+646.403C405.717+646.788+406.12+647.1+406.597+647.338C407.073+647.577+407.587+647.742+408.137+647.833C408.687+647.925+409.182+647.971+409.622+647.971C410.538+647.971+411.437+647.815+412.317+647.503C413.197+647.192+413.985+646.706+414.682+646.046L422.987+651.766C421.08+653.709+418.898+655.066+416.442+655.836C413.985+656.606+411.437+656.991+408.797+656.991C406.743+656.991+404.791+656.716+402.939+656.166C401.087+655.616+399.474+654.791+398.099+653.691C396.724+652.591+395.633+651.225+394.827+649.593C394.02+647.962+393.617+646.046+393.617+643.846C393.617+641.389+394.057+639.088+394.937+636.943C395.817+634.798+397.054+632.938+398.649+631.361C400.244+629.784+402.151+628.547+404.369+627.648C406.587+626.75+409.035+626.301+411.712+626.301C413.838+626.301+415.745+626.603+417.432+627.208C419.118+627.813+420.548+628.675+421.722+629.793C422.895+630.912+423.802+632.268+424.444+633.863C425.086+635.458+425.407+637.246+425.407+639.226C425.407+640.033+425.342+640.913+425.214+641.866C425.086+642.819+424.893+643.699+424.637+644.506L404.947+644.506ZM414.682+637.961C414.718+637.851+414.737+637.732+414.737+637.603C414.737+637.475+414.737+637.374+414.737+637.301C414.737+636.384+414.397+635.651+413.719+635.101C413.041+634.551+412.097+634.276+410.887+634.276C410.117+634.276+409.429+634.404+408.824+634.661C408.219+634.918+407.697+635.229+407.257+635.596C406.817+635.963+406.459+636.357+406.184+636.778C405.909+637.2+405.717+637.594+405.607+637.961L414.682+637.961ZM416.387+623.991L407.312+623.991L414.737+616.071L426.177+616.071L416.387+623.991Z" vectornator:shadowOffset="3.57143" fill="#b1b1b1" opacity="1" vectornator:shadowAngle="2.75778"/>
<path vectornator:shadowColor="#202020" vectornator:shadowOpacity="1" vectornator:shadowRadius="4.91071" d="M431.8+632.846C431.947+632.149+432.103+631.251+432.268+630.151C432.433+629.051+432.552+628.061+432.625+627.181L444.505+627.181C444.469+627.731+444.414+628.363+444.34+629.078C444.267+629.793+444.194+630.408+444.12+630.921L444.34+630.921C445.147+629.821+446.265+628.813+447.695+627.896C449.125+626.979+450.83+626.521+452.81+626.521C454.937+626.521+456.633+626.906+457.898+627.676C459.163+628.446+460.107+629.491+460.73+630.811C461.684+629.638+462.848+628.629+464.223+627.786C465.598+626.943+467.33+626.521+469.42+626.521C471.107+626.521+472.546+626.796+473.738+627.346C474.929+627.896+475.901+628.611+476.653+629.491C477.404+630.371+477.954+631.361+478.303+632.461C478.651+633.561+478.825+634.661+478.825+635.761C478.825+636.274+478.798+636.76+478.743+637.218C478.688+637.677+478.624+638.126+478.55+638.566L475.47+656.111L463.095+656.111L465.79+640.766C465.864+640.473+465.909+640.152+465.928+639.803C465.946+639.455+465.955+639.171+465.955+638.951C465.955+637.264+465.204+636.421+463.7+636.421C462.894+636.421+462.206+636.815+461.638+637.603C461.069+638.392+460.657+639.464+460.4+640.821L457.705+656.111L445.385+656.111L448.08+640.876C448.154+640.583+448.199+640.28+448.218+639.968C448.236+639.657+448.245+639.409+448.245+639.226C448.245+638.383+448.053+637.704+447.668+637.191C447.283+636.678+446.724+636.421+445.99+636.421C445.294+636.421+444.652+636.769+444.065+637.466C443.479+638.163+443.039+639.281+442.745+640.821L440.05+656.111L427.73+656.111L431.8+632.846Z" vectornator:shadowOffset="3.57143" fill="#b1b1b1" opacity="1" vectornator:shadowAngle="2.75778"/>
<path vectornator:shadowColor="#202020" vectornator:shadowOpacity="1" vectornator:shadowRadius="4.91071" d="M481.919+656.111L487.034+627.181L499.354+627.181L494.239+656.111L481.919+656.111ZM493.909+625.036C492.956+625.036+492.103+624.889+491.352+624.596C490.6+624.303+489.967+623.908+489.454+623.413C488.941+622.918+488.537+622.35+488.244+621.708C487.951+621.067+487.804+620.398+487.804+619.701C487.804+618.711+487.969+617.785+488.299+616.923C488.629+616.062+489.106+615.31+489.729+614.668C490.352+614.027+491.086+613.523+491.929+613.156C492.772+612.789+493.726+612.606+494.789+612.606C495.669+612.606+496.485+612.753+497.237+613.046C497.988+613.339+498.63+613.733+499.162+614.228C499.693+614.723+500.106+615.292+500.399+615.933C500.692+616.575+500.839+617.244+500.839+617.941C500.839+618.931+500.674+619.857+500.344+620.718C500.014+621.58+499.547+622.332+498.942+622.973C498.337+623.615+497.603+624.119+496.742+624.486C495.88+624.853+494.936+625.036+493.909+625.036Z" vectornator:shadowOffset="3.57143" fill="#b1b1b1" opacity="1" vectornator:shadowAngle="2.75778"/>
<path vectornator:shadowColor="#202020" vectornator:shadowOpacity="1" vectornator:shadowRadius="4.91071" d="M513.173+644.506C513.136+644.616+513.118+644.744+513.118+644.891C513.118+645.514+513.283+646.018+513.613+646.403C513.943+646.788+514.346+647.1+514.823+647.338C515.299+647.577+515.813+647.742+516.363+647.833C516.913+647.925+517.408+647.971+517.848+647.971C518.764+647.971+519.663+647.815+520.543+647.503C521.423+647.192+522.211+646.706+522.908+646.046L531.213+651.766C529.306+653.709+527.124+655.066+524.668+655.836C522.211+656.606+519.663+656.991+517.023+656.991C514.969+656.991+513.017+656.716+511.165+656.166C509.314+655.616+507.7+654.791+506.325+653.691C504.95+652.591+503.859+651.225+503.053+649.593C502.246+647.962+501.843+646.046+501.843+643.846C501.843+641.389+502.283+639.088+503.163+636.943C504.043+634.798+505.28+632.938+506.875+631.361C508.47+629.784+510.377+628.547+512.595+627.648C514.814+626.75+517.261+626.301+519.938+626.301C522.064+626.301+523.971+626.603+525.658+627.208C527.344+627.813+528.774+628.675+529.948+629.793C531.121+630.912+532.029+632.268+532.67+633.863C533.312+635.458+533.633+637.246+533.633+639.226C533.633+640.033+533.569+640.913+533.44+641.866C533.312+642.819+533.119+643.699+532.863+644.506L513.173+644.506ZM522.908+637.961C522.944+637.851+522.963+637.732+522.963+637.603C522.963+637.475+522.963+637.374+522.963+637.301C522.963+636.384+522.624+635.651+521.945+635.101C521.267+634.551+520.323+634.276+519.113+634.276C518.343+634.276+517.655+634.404+517.05+634.661C516.445+634.918+515.923+635.229+515.483+635.596C515.043+635.963+514.685+636.357+514.41+636.778C514.135+637.2+513.943+637.594+513.833+637.961L522.908+637.961Z" vectornator:shadowOffset="3.57143" fill="#b1b1b1" opacity="1" vectornator:shadowAngle="2.75778"/>
</g>
</g>
</svg>
