<?xml version="1.0" encoding="UTF-8" standalone="no"?> <!-- Created with Vectornator for iOS (http://vectornator.io/) --><!DOCTYPE svg PUBLIC "-//W3C//DTD SVG 1.1//EN" "http://www.w3.org/Graphics/SVG/1.1/DTD/svg11.dtd">
<svg height="100%" style="fill-rule:evenodd;clip-rule:evenodd;stroke-linecap:round;stroke-linejoin:round;" xmlns:xlink="http://www.w3.org/1999/xlink" xmlns="http://www.w3.org/2000/svg" xml:space="preserve" width="100%" xmlns:vectornator="http://vectornator.io" version="1.1" viewBox="0 0 400 400">
<metadata>
<vectornator:setting key="IsolateActiveLayer" value="0"/>
<vectornator:setting key="SnapToPoints" value="0"/>
<vectornator:setting key="OutlineMode" value="0"/>
<vectornator:setting key="RulersVisible" value="1"/>
<vectornator:setting key="CMYKEnabledKey" value="0"/>
<vectornator:setting key="SnapToEdges" value="0"/>
<vectornator:setting key="DisplayWhiteBackground" value="0"/>
<vectornator:setting key="ShowGrid" value="1"/>
<vectornator:setting key="SnapToGuides" value="1"/>
<vectornator:setting key="Units" value="Pixels"/>
<vectornator:setting key="DynamicGuides" value="0"/>
<vectornator:setting key="SnapToGrid" value="0"/>
<vectornator:setting key="GridSpacing" value="36"/>
</metadata>
<defs>
<linearGradient y1="-4.08769" id="LinearGradient" x1="225.032" y2="25.5514" x2="264.13" gradientUnits="userSpaceOnUse" gradientTransform="matrix(1 0 0 1 0.630619 1.89186)">
<stop stop-color="#2aafe0" offset="0"/>
<stop stop-color="#70bcd8" offset="0.997984"/>
</linearGradient>
<linearGradient y1="178.947" id="LinearGradient_2" x1="36.4058" y2="178.947" x2="144.095" gradientUnits="userSpaceOnUse" gradientTransform="matrix(1 0 0 1 24.3201 71.6568)">
<stop stop-color="#2aafe0" offset="0.145161"/>
<stop stop-color="#4c65c1" offset="0.889113"/>
</linearGradient>
<linearGradient y1="178.947" id="LinearGradient_3" x1="36.4058" y2="178.947" x2="144.095" gradientUnits="userSpaceOnUse" gradientTransform="matrix(1 0 0 1 129.933 73.0062)">
<stop stop-color="#2aafe0" offset="0.145161"/>
<stop stop-color="#4c65c1" offset="0.889113"/>
</linearGradient>
<linearGradient y1="-348.613" id="LinearGradient_4" x1="839.49" y2="-348.613" x2="839.49" gradientUnits="userSpaceOnUse" gradientTransform="matrix(1 0 0 1 0 0)">
<stop stop-color="#2aafe0" offset="0.145161"/>
<stop stop-color="#334795" offset="0.8125"/>
</linearGradient>
<linearGradient y1="217.176" id="LinearGradient_5" x1="181.136" y2="219.826" x2="436.482" gradientUnits="userSpaceOnUse" gradientTransform="matrix(1 0 0 1 -35.7226 -218.366)">
<stop stop-color="#2aafe0" offset="0.145161"/>
<stop stop-color="#334795" offset="0.8125"/>
</linearGradient>
</defs>
<g id="Calque 2" vectornator:layerName="Calque 2">
<path d="M251.938+82.5938C161.363+81.1247+74.7711+127.995+58.5312+187.25C42.2914+246.505+102.551+295.718+193.125+297.188C283.699+298.657+370.291+251.817+386.531+192.562C400.965+139.897+354.878+95.2373+280.875+84.9062C280.816+89.8643+277.788+94.4665+272.812+96.125C266.525+98.2207+259.721+94.8186+257.625+88.5312C257.589+88.4231+257.505+88.2331+257.469+88.125C256.878+86.3541+256.808+84.5799+257.031+82.8438C255.316+82.7807+253.675+82.6219+251.938+82.5938Z" opacity="1" fill="#70bcd8"/>
<path d="M298.812+16.125C267.194+16.125+241.563+36.8975+241.562+62.5312C241.563+88.165+267.194+108.969+298.812+108.969C330.431+108.969+356.062+88.165+356.062+62.5312C356.062+36.8975+330.431+16.125+298.812+16.125Z" opacity="1" fill="#70bcd8"/>
<path d="M334.764+48.5653L347.071+45.2076C377.751+42.0952+378.017+60.8594+378.017+60.8594L348.251+68.1288L379.413+73.0475C379.413+73.0475+371.185+91.0005+344.966+88.3265C331.354+86.9382+333.75+71.8497+333.75+71.8497" opacity="1" fill="#70bcd8"/>
<path d="M344.505+70.1311C344.505+63.6478+345.152+58.3922+345.95+58.3922C346.748+58.3922+347.395+63.6478+347.395+70.1311C347.395+76.6143+346.748+81.87+345.95+81.87C345.152+81.87+344.505+76.6143+344.505+70.1311Z" opacity="1" fill="#70bcd8"/>
<path d="M297.054+24.1091C272.317+11.53+263.768+4.34144+249.164+4.12823C234.56+3.91503+227.705+17.1337+227.705+17.1337C227.705+17.1337+219.546+32.0581+218.018+35.4694C216.491+38.8807+243.535+24.347+243.535+24.347C243.535+24.347+265.811+24.9287+265.258+37.6014" opacity="1" fill="url(#LinearGradient)"/>
</g>
<g id="Calque 3" vectornator:layerName="Calque 3">
<path d="M313.314+60.8506C316.104+62.2359+335.028+56.1091+334.235+52.6323C333.442+49.1556+329.711+35.7246+314.013+40.8897C298.314+46.0548+309.146+58.7814+313.314+60.8506Z" opacity="1" fill="#ffffff"/>
<path d="M322.411+59.6306C320.245+60.3972+316.275+52.6902+316.93+49.9525C317.284+48.4729+321.598+51.5523+322.074+50.6698C323.806+47.4583+319.621+46.3301+322.952+45.8738C327.213+45.2901+332.521+55.2265+330.519+56.3455C326.636+58.5157+328.199+57.5822+322.411+59.6306Z" opacity="1" fill="#000000"/>
</g>
<g id="Calque 1" vectornator:layerName="Calque 1">
<path d="M96.8212+215.742L96.8212+251.428L95.9003+286.654C95.9003+286.654+95.27+315.142+96.7422+327.012C105.135+374.494+174.92+348.594+174.92+348.594C174.92+348.594+174.221+331.556+173.721+314.782C169.13+317.267+149.734+325.95+140.627+318.139C131.255+310.101+132.234+285.525+132.234+285.525L132.234+252.192L132.234+215.501L168.248+215.833L168.415+179.987L132.737+179.486L132.403+144.226L96.5575+143.975L96.2233+179.737L60.7259+179.664L61.0779+215.59L96.8212+215.742Z" opacity="1" fill="url(#LinearGradient_2)"/>
<path d="M202.355+328.361C210.748+375.843+280.532+349.944+280.532+349.944C280.532+349.944+279.834+332.905+279.333+316.131C274.743+318.616+250.139+326.141+241.032+318.33C231.66+310.292+237.329+294+237.329+294L198.443+296.52C198.443+296.52+200.883+316.491+202.355+328.361Z" opacity="1" fill="url(#LinearGradient_3)"/>
<path stroke="#3a3593" stroke-width="1" d="M839.489-348.613" fill="url(#LinearGradient_4)" stroke-linecap="butt" opacity="1" stroke-linejoin="round"/>
<g opacity="1">
<path d="M265.571+149.135C261.071+149.135+257.113+150.344+253.696+152.76C250.28+155.177+247.405+158.302+245.071+162.135C242.738+165.969+240.988+170.219+239.821+174.885C238.655+179.552+238.071+184.135+238.071+188.635C238.071+190.802+238.321+193.177+238.821+195.76C239.321+198.344+240.238+200.76+241.571+203.01C242.905+205.26+244.738+207.135+247.071+208.635C249.405+210.135+252.405+210.885+256.071+210.885C261.238+210.885+265.571+209.594+269.071+207.01C272.571+204.427+275.446+201.26+277.696+197.51C279.946+193.76+281.571+189.677+282.571+185.26C283.571+180.844+284.071+176.802+284.071+173.135C284.071+170.135+283.78+167.219+283.196+164.385C282.613+161.552+281.613+159.01+280.196+156.76C278.78+154.51+276.905+152.677+274.571+151.26C272.238+149.844+269.238+149.135+265.571+149.135ZM344.571+243.135C334.738+253.469+323.113+261.052+309.696+265.885C296.28+270.719+281.821+273.135+266.321+273.135C251.988+273.135+238.946+270.844+227.196+266.26C215.446+261.677+205.405+255.302+197.071+247.135C188.738+238.969+182.28+229.177+177.696+217.76C173.113+206.344+170.821+193.885+170.821+180.385C170.821+167.052+173.321+154.719+178.321+143.385C183.321+132.052+190.155+122.219+198.821+113.885C207.488+105.552+217.613+99.0105+229.196+94.2605C240.78+89.5105+253.155+87.1355+266.321+87.1355C277.655+87.1355+288.655+88.8021+299.321+92.1355C309.988+95.4688+319.446+100.469+327.696+107.135C335.946+113.802+342.53+122.135+347.446+132.135C352.363+142.135+354.821+153.885+354.821+167.385C354.821+177.385+353.488+186.219+350.821+193.885C348.155+201.552+344.571+207.969+340.071+213.135C335.571+218.302+330.363+222.177+324.446+224.76C318.53+227.344+312.321+228.635+305.821+228.635C298.821+228.635+293.446+226.927+289.696+223.51C285.946+220.094+284.071+215.969+284.071+211.135L282.821+211.135C281.821+212.969+280.405+214.927+278.571+217.01C276.738+219.094+274.488+221.01+271.821+222.76C269.155+224.51+266.196+225.927+262.946+227.01C259.696+228.094+256.071+228.635+252.071+228.635C240.738+228.635+231.905+224.844+225.571+217.26C219.238+209.677+216.071+199.885+216.071+187.885C216.071+180.885+217.238+173.969+219.571+167.135C221.905+160.302+225.238+154.26+229.571+149.01C233.905+143.76+239.113+139.51+245.196+136.26C251.28+133.01+258.071+131.385+265.571+131.385C271.905+131.385+277.321+132.76+281.821+135.51C286.321+138.26+289.321+141.635+290.821+145.635L291.321+145.635L293.571+135.135L312.571+135.135L302.821+182.135C302.321+184.469+301.78+187.385+301.196+190.885C300.613+194.385+300.321+197.385+300.321+199.885C300.321+202.719+300.905+205.302+302.071+207.635C303.238+209.969+305.988+211.135+310.321+211.135C313.988+211.135+317.363+210.094+320.446+208.01C323.53+205.927+326.155+203.052+328.321+199.385C330.488+195.719+332.196+191.302+333.446+186.135C334.696+180.969+335.321+175.385+335.321+169.385C335.321+158.885+333.613+149.635+330.196+141.635C326.78+133.635+321.988+126.927+315.821+121.51C309.655+116.094+302.321+112.01+293.821+109.26C285.321+106.51+276.071+105.135+266.071+105.135C255.071+105.135+245.071+107.052+236.071+110.885C227.071+114.719+219.321+120.052+212.821+126.885C206.321+133.719+201.321+141.76+197.821+151.01C194.321+160.26+192.571+170.219+192.571+180.885C192.571+192.219+194.446+202.469+198.196+211.635C201.946+220.802+207.155+228.594+213.821+235.01C220.488+241.427+228.446+246.385+237.696+249.885C246.946+253.385+257.155+255.135+268.321+255.135C282.488+255.135+294.696+252.927+304.946+248.51C315.196+244.094+324.571+237.885+333.071+229.885L344.571+243.135Z" opacity="1" fill="url(#LinearGradient_5)"/>
</g>
</g>
</svg>
