<?xml version="1.0" encoding="UTF-8" standalone="no"?> <!-- Created with Vectornator for iOS (http://vectornator.io/) --><!DOCTYPE svg PUBLIC "-//W3C//DTD SVG 1.1//EN" "http://www.w3.org/Graphics/SVG/1.1/DTD/svg11.dtd">
<svg height="100%" style="fill-rule:evenodd;clip-rule:evenodd;stroke-linecap:round;stroke-linejoin:round;" xmlns:xlink="http://www.w3.org/1999/xlink" xmlns="http://www.w3.org/2000/svg" xml:space="preserve" width="100%" xmlns:vectornator="http://vectornator.io" version="1.1" viewBox="0 0 100 100">
<metadata>
<vectornator:setting key="DisplayWhiteBackground" value="1"/>
<vectornator:setting key="RulersVisible" value="1"/>
<vectornator:setting key="GridSpacing" value="40"/>
<vectornator:setting key="Units" value="Pixels"/>
<vectornator:setting key="DynamicGuides" value="0"/>
<vectornator:setting key="SnapToPoints" value="0"/>
<vectornator:setting key="SnapToGrid" value="0"/>
<vectornator:setting key="SnapToGuides" value="0"/>
<vectornator:setting key="ShowGrid" value="1"/>
<vectornator:setting key="SnapToEdges" value="0"/>
</metadata>
<defs>
<linearGradient y1="8.99214" id="LinearGradient" x1="38.4812" y2="8.99214" x2="54.9203" gradientUnits="userSpaceOnUse" gradientTransform="matrix(1 0 0 1 0 0)">
<stop stop-color="#c6f4ff" offset="0.233871"/>
<stop stop-color="#6a97b9" offset="0.804435"/>
</linearGradient>
<linearGradient y1="46.42" id="LinearGradient_2" x1="9.95172" y2="46.42" x2="84.0165" gradientUnits="userSpaceOnUse" gradientTransform="matrix(1 0 0 1 0 0)">
<stop stop-color="#c6f4ff" offset="0.233871"/>
<stop stop-color="#6a97b9" offset="0.804435"/>
</linearGradient>
</defs>
<g id="Calque 1" vectornator:layerName="Calque 1">
<path d="M49.9325+2.73617C47.4474+2.73617+44.9461+3.56873+43.2303+5.23386C39.7988+8.56411+42.8244+18.5549+42.8244+18.5549L56.5513+18.5549C56.5513+18.5549+59.8816+8.56411+56.5513+5.23386C54.8862+3.56873+52.4175+2.73617+49.9325+2.73617ZM49.87+6.90939C51.0451+6.90939+52.2151+7.29799+53.0025+8.08539C54.5773+9.6602+53.0025+14.3816+53.0025+14.3816L46.5085+14.3816C46.5085+14.3816+45.0732+9.66018+46.6959+8.08539C47.5072+7.29799+48.6949+6.90939+49.87+6.90939Z" fill-opacity="0.520089" fill="#1f1f1f" opacity="1"/>
<path d="M46.8213+1.08279C44.3363+1.08279+41.835+1.91536+40.1192+3.58048C36.6876+6.91074+39.7133+16.9015+39.7133+16.9015L53.4402+16.9015C53.4402+16.9015+56.7704+6.91074+53.4402+3.58048C51.7751+1.91536+49.3063+1.08279+46.8213+1.08279ZM46.7589+5.25602C47.934+5.25601+49.104+5.64461+49.8914+6.43201C51.4662+8.00682+49.8914+12.7283+49.8914+12.7283L43.3974+12.7283C43.3974+12.7283+41.962+8.00681+43.5847+6.43201C44.3961+5.64461+45.5838+5.25602+46.7589+5.25602Z" opacity="1" fill="url(#LinearGradient)"/>
<path d="M30.1138+47.1391C30.1138+47.1391+16.7927+34.103+30.1138+20.4971C36.7486+16.3279+65.2408+16.3279+70.0768+20.4971C83.3978+33.7256+70.0768+47.1391+70.0768+47.1391C70.0768+47.1391+96.7188+67.1207+83.3978+73.7812C70.0768+80.4417+30.1138+80.4417+16.7927+73.7812C3.47173+67.1207+30.1138+47.1391+30.1138+47.1391Z" fill-opacity="0.520089" fill="#1f1f1f" opacity="1"/>
<path d="M16.7139+69.4137C16.7139+69.4137+30.5366+55.6001+49.863+55.6714C69.1895+55.7427+83.319+69.4137+83.319+69.4137C49.2203+81.8504+16.7139+69.4137+16.7139+69.4137Z" fill-opacity="0.520089" fill="#1f1f1f" opacity="1"/>
<path d="M27.0026+45.4858C27.0026+45.4858+13.6816+32.4496+27.0026+18.8437C33.6375+14.6745+62.1296+14.6745+66.9656+18.8437C80.2867+32.0723+66.9656+45.4858+66.9656+45.4858C66.9656+45.4858+93.6077+65.4673+80.2867+72.1278C66.9656+78.7883+27.0026+78.7883+13.6816+72.1278C0.360591+65.4673+27.0026+45.4858+27.0026+45.4858Z" opacity="1" fill="url(#LinearGradient_2)"/>
<path d="M13.6028+67.7604C13.6028+67.7604+27.4254+53.9467+46.7519+54.018C66.0783+54.0893+80.2078+67.7604+80.2078+67.7604C46.1092+80.1971+13.6028+67.7604+13.6028+67.7604Z" opacity="1" fill="#91b5be"/>
</g>
<g id="Calque 2" vectornator:layerName="Calque 2">
<path d="M44.691+54.6645C44.9281+63.6051+45.4805+88.2313+45.4805+88.2313C45.4805+88.2313+41.896+89.2319+42.7412+92.5892C43.5865+95.9466+45.0737+97.4217+48.1782+97.4867C51.2828+97.5517+53.0703+95.9821+53.6568+92.6307C54.2378+89.3104+51.0005+88.3143+51.0005+88.3143L51.8882+63.7101L52.3418+54.5357C52.3418+54.5357+48.6105+53.6809+44.691+54.6645Z" fill-opacity="0.520089" fill="#1f1f1f" opacity="1"/>
<path d="M43.1625+54.3007C43.3996+63.2412+43.952+87.8675+43.952+87.8675C43.952+87.8675+40.3674+88.8681+41.2127+92.2254C42.0579+95.5827+43.5451+97.0579+46.6497+97.1229C49.7543+97.1879+51.5418+95.6183+52.1282+92.2669C52.7093+88.9466+49.472+87.9505+49.472+87.9505L50.8133+54.1719C50.8133+54.1719+47.082+53.317+43.1625+54.3007Z" opacity="1" fill="#e1ea6b"/>
</g>
<g id="Calque 2_2" vectornator:layerName="Calque 2">
<path d="M57.9126+35.3471C55.415+35.0618+53.2878+37.0922+53.2772+39.2954C53.2666+41.4985+55.581+42.2617+58.0786+42.547C60.5762+42.8323+62.6921+43.2817+62.7026+41.0785C62.7132+38.8754+60.4102+35.6324+57.9126+35.3471Z" opacity="1" fill="#000000"/>
<path d="M35.7224+35.0251C38.0751+34.7444+40.079+36.7418+40.0889+38.909C40.0989+41.0762+37.9188+41.827+35.5661+42.1076C33.2134+42.3883+31.2203+42.8303+31.2104+40.6631C31.2004+38.4958+33.3698+35.3057+35.7224+35.0251Z" opacity="1" fill="#000000"/>
<path d="M58.9174+37.9282C58.3229+38.1443+58.0914+38.8458+58.3553+39.3484C58.6193+39.851+59.3788+40.1547+59.9733+39.9386C60.5678+39.7225+60.8368+38.9948+60.5729+38.4921C60.3089+37.9895+59.5119+37.7121+58.9174+37.9282Z" opacity="1" fill="#ffffff"/>
<path d="M34.6702+37.2649C35.2302+37.4774+35.4483+38.1675+35.1996+38.6619C34.951+39.1563+34.2356+39.4551+33.6756+39.2425C33.1156+39.03+32.8621+38.3141+33.1108+37.8196C33.3594+37.3252+34.1102+37.0523+34.6702+37.2649Z" opacity="1" fill="#ffffff"/>
<path d="M56.8358+37.1407C56.5454+37.2436+56.4323+37.5777+56.5612+37.8171C56.6902+38.0565+57.0612+38.2011+57.3517+38.0982C57.6421+37.9953+57.7735+37.6487+57.6446+37.4093C57.5156+37.1699+57.1262+37.0378+56.8358+37.1407Z" opacity="1" fill="#ffffff"/>
<path d="M36.631+36.4902C36.9046+36.5915+37.0111+36.9201+36.8896+37.1556C36.7682+37.391+36.4187+37.5333+36.1451+37.4321C35.8715+37.3309+35.7477+36.9899+35.8691+36.7544C35.9906+36.519+36.3574+36.389+36.631+36.4902Z" opacity="1" fill="#ffffff"/>
</g>
</svg>
